<svg id="Layer_1" data-name="Layer 1" xmlns="http://www.w3.org/2000/svg" viewBox="0 0 561.25 223.05"><path d="M-683.95-277.86c-5.2,1.67-10,3.36-14.95,4.75a24.38,24.38,0,0,1-13.65.21,8.45,8.45,0,0,1-3.3-1.83,2.81,2.81,0,0,1-.25-4.26,74.29,74.29,0,0,1,6.41-5.75,2.12,2.12,0,0,1,2.11.17c.38.42.21,1.47,0,2.18-.14.52-.7.93-1.52,1.95,3.16-.75,5.79-1.13,8.26-2q9.38-3.29,18.61-7a4.8,4.8,0,0,0,2.45-2.86q8-29.68,15.81-59.44c1.2-4.58,2.25-9.21,3.54-13.77a3.59,3.59,0,0,1,2-2.27c1.57-.38,2.1,1.11,2.1,2.32,0,3.21.27,6.52-.38,9.61-4,19-8.22,38-12.35,57a9.07,9.07,0,0,0,0,1.37c4.67-3.44,9.12-6.54,13.38-9.9,5.71-4.5,11.28-9.16,16.83-13.85A5.66,5.66,0,0,0-637.3-324c1.41-5.47,2.43-11.06,4.14-16.43a44.66,44.66,0,0,1,4.79-9.7c2.63-4.22,5.86-5.26,9.79-3.7a9.71,9.71,0,0,1,6.13,10.28c-.68,6.42-4.49,11.09-8.37,15.76a49.35,49.35,0,0,1-5.16,5.72c-2,1.79-2.58,4-2.65,6.44-.32,12-.77,24.06-.88,36.1-.15,15.83,0,31.66,0,47.49,0,1.64.26,3.28.45,5.57a34,34,0,0,0,3.32-2.2c8.31-7.15,15.33-15.51,22-24.17,4.36-5.68,8.2-11.78,12.12-17.79a8.35,8.35,0,0,0,1.12-4.25c.12-7.18.06-14.37.08-21.55,0-3.25,2.13-5.7,5.09-5.88a5.13,5.13,0,0,1,5.42,5.19c.12,6.88,0,13.76-.09,20.64,0,1.72,0,3.44,0,5.9,1.48-1.83,2.6-3.1,3.58-4.46,8.53-11.73,16.08-24,19.67-38.25a4.74,4.74,0,0,1,5.71-3.61,4.89,4.89,0,0,1,3.77,5.42c-.13,1.42-.51,2.82-.68,4.24-1,8.16-2.17,16.31-2.84,24.49-.83,10.18-1.22,20.4-1.78,30.6-.07,1.34,0,2.7,0,4.33,3.88-.47,7.68-.85,11.44-1.46a2.71,2.71,0,0,0,1.56-1.91c1.48-10,3.5-19.79,8.21-28.8a31.37,31.37,0,0,1,5.18-7.35,9.89,9.89,0,0,1,11.88-2c4.27,2.07,6.41,6.16,5.93,11.74a39.91,39.91,0,0,1-10,23.35,105.15,105.15,0,0,1-9.24,9c-1.62,1.45-1.11,3.1-.7,4.54.22.81,1.63,1.63,2.63,1.83a10.72,10.72,0,0,0,10.64-3.51c4.37-4.81,8.65-9.71,13.15-14.41a27.63,27.63,0,0,0,6.23-11,63.93,63.93,0,0,1,6.07-12.09,12.62,12.62,0,0,1,4.41-4.11,5.31,5.31,0,0,1,7.65,3.18,7.12,7.12,0,0,1-.27,2.7c-.88-.32-1.76-.62-2.62-1a5.84,5.84,0,0,1-1-.83,23.22,23.22,0,0,0-2.1,3.14c-.95,2.13-2.26,4.3-2.45,6.54-.62,7.21-4.22,13.9-3.46,21.34.38,3.68,2.28,5.33,5.88,4.2,5.16-1.64,9.12-5.13,12.38-9.24,3.8-4.78,7.14-9.94,10.69-14.92a3.3,3.3,0,0,0,.22-3.92,60.5,60.5,0,0,1-2.67-7.05,18.29,18.29,0,0,1-4.19,0,5.77,5.77,0,0,1-3.26-8.75c2.92-4.65,11.92-8.31,17.19-7,4.12,1,7.14,4.47,6.83,8.71-.32,4.48-1.31,8.92-2,13.38-.05.35-.13.7-.22,1.2,3.06.62,5.49-.52,7.64-2.24,3.95-3.17,7.95-6.32,11.62-9.8,4.9-4.63,9.55-9.52,14.19-14.41a8.26,8.26,0,0,0,1.94-3.7,260.22,260.22,0,0,1,10.09-34c1.23-3.23,2.81-6.06,5.86-8.08,3.48-2.29,6.92-1.72,8.87,2.07,2.57,5,2.81,10.26,1.85,15.68-1.25,7.07-5.12,12.83-9.22,18.48a38.4,38.4,0,0,1-4.25,5.3c-3.34,3.2-4.8,7.1-5.52,11.57-.83,5.26-2.11,10.45-2.71,16.05,4.36-2.81,8.68-5.69,13.09-8.41a18.94,18.94,0,0,0,7.46-8.52c2.9-6.31,6-12.54,9.17-18.71a20.07,20.07,0,0,1,3.9-5.21,5.8,5.8,0,0,1,6.93-1,6,6,0,0,1,3.13,6.52c-1.69,9.93-4.61,19.32-12.89,26a30.57,30.57,0,0,0-7.11,8.42c-1.31,2.19-2.95,4.19-4.59,6.47a22.24,22.24,0,0,1,3.93,2c5.12,4,10.17,8.05,15.21,12.14,1.88,1.52,3.61,3.24,5.48,4.77a14.86,14.86,0,0,0,14.67,2.91c4-1.25,7.85-2.67,11.81-3.9a7.4,7.4,0,0,1,2.47.09c-.24.85-.21,2-.76,2.52-3,2.95-6.13,5.85-9.35,8.61-5.3,4.56-11.46,5.15-17.61,2.45a70.28,70.28,0,0,1-11.71-7.17,85.19,85.19,0,0,1-8.51-7.15c-5.49-5.08-12-6.45-19.16-5.51a86.72,86.72,0,0,0-9.34,1.73,3.8,3.8,0,0,0-2.31,2c-1.8,4.4-3.91,8.5-7.84,11.44-4.27,3.19-7.87,2.35-9.94-2.58a27.63,27.63,0,0,1-2.36-7.42,9.44,9.44,0,0,1,1.56-5.49,34.68,34.68,0,0,1,5.3-6.43,9.48,9.48,0,0,1,4-1.88c2.24-.65,3.6-1.8,4-4.23.7-4.29,1.62-8.54,2.54-13.26-4.19,3.77-7.91,7.3-11.83,10.6a109.75,109.75,0,0,1-9.25,6.93,13.9,13.9,0,0,1-11.92,1.94c-1.58-.46-2.08.12-2.75,1.33-3.91,7-8.23,13.77-14,19.5a35.38,35.38,0,0,1-11.68,8.06c-8.6,3.49-16,.63-20-7.82a55.47,55.47,0,0,1-4.25,5.35,127.49,127.49,0,0,1-10,9.19c-5.24,4.2-20.31,4.24-24.8-3.16a72,72,0,0,1-3.39-7.25c-3.51.35-7.55.66-11.56,1.25-.6.09-1.34,1.43-1.47,2.27-.76,5.07-1.3,10.18-2,15.27-3.06,21.4-9.19,41.81-20,60.66-2.37,4.16-5.22,8-9.75,10.15-5.45,2.6-9.85,1.83-13.94-2.55-4.87-5.23-8.06-11.49-10.84-18-4.48-10.45-5.69-21.4-4.57-32.62.5-5,3-9.19,6.21-12.88,11.28-13.09,24.7-23.12,41.44-28.15,2.08-.62,2.62-1.7,2.78-3.63.76-9.27,1.63-18.52,2.49-28a13.75,13.75,0,0,0-1,1.08c-2,2.82-4,5.7-6.12,8.45-5.69,7.37-8.83,8.44-17.88,6.19-4.6,8.62-10.81,16.17-17.35,23.4-5.06,5.6-10.62,10.76-16.11,16a11.58,11.58,0,0,1-9.45,3c-3.8-.36-7.35-2.8-8.11-6.52a61.13,61.13,0,0,1-1.34-12.12c0-22.27.21-44.53.37-66.8,0-2,.2-3.92.34-6.41-1,.78-1.68,1.32-2.36,1.83-10.16,7.64-20.33,15.26-30.43,23a6.19,6.19,0,0,0-2.14,2.95q-9.85,33.63-19.56,67.31a15.1,15.1,0,0,1-.92,2.54,3.76,3.76,0,0,1-4.45,2.31,3.47,3.47,0,0,1-2.86-3.85,54.84,54.84,0,0,1,1.68-8.63c5-17.48,10-34.93,15-52.38C-684.49-275.63-684.26-276.64-683.95-277.86Zm117.83,43.4-1.81.6c-5.77,1.94-10.55,5.48-15.3,9.14-6.61,5.1-13.28,10.16-17.81,17.32a16.29,16.29,0,0,0-2.79,7.24,67.88,67.88,0,0,0,.51,14.25c1.33,9,5.37,16.91,10.32,24.4.61.91,1.32,1.76,2.16,2.87a14.9,14.9,0,0,0,2.26-2.2,63.13,63.13,0,0,0,4-6.83,190.88,190.88,0,0,0,16.3-52.53C-567.56-224.81-566.88-229.42-566.12-234.46Zm39.35-25.47a29.76,29.76,0,0,0,9.59-19.31C-520.55-278.23-525.65-267.76-526.77-259.93Z" transform="translate(896.87 371.6)"/><path d="M-826.34-214c1.37-1.77,2.83-3.46,4.09-5.3,5.39-7.86,10.88-15.65,16-23.7,1.37-2.17,1.43-5.16,2.13-7.77a30.26,30.26,0,0,1,1.23-4.1c1.11-2.65,3.36-3.82,5.76-3.18a5,5,0,0,1,3.76,5.89,27.92,27.92,0,0,1-2.1,7.58c-2.13,4.18-2.41,8.69-3.11,13.12-.41,2.61-.45,5.26-.69,8.34.55-.44.81-.55.93-.75,4.92-8.15,9.94-16.24,14.63-24.52,1.17-2.07,1.44-4.71,1.82-7.14.5-3.15,2.24-4.91,5-4.64,2.6.26,4.12,2.38,3.81,5.41-.39,3.9-.84,7.79-1.31,12,2-3,3.71-5.7,5.67-8.23a20,20,0,0,1,4.39-4.22c4-2.72,8.82-1.08,9.71,3.63a104.33,104.33,0,0,1,1.37,15.31c.22,6.05,0,12.11,0,18.73.91-.74,1.53-1.18,2.08-1.69,6.36-5.95,12.6-12,19.11-17.8a102.7,102.7,0,0,1,10.25-7.49,8.61,8.61,0,0,1,2.78-.73c-.08,1,.2,2.31-.29,3.1-2.82,4.64-5.31,9.61-8.88,13.62-5.66,6.38-12,12.14-18.22,18a20.22,20.22,0,0,1-5.09,3.35c-5.93,2.86-10.73-.11-10.8-6.72-.05-5.15.2-10.3.25-15.45,0-4.81,0-9.62,0-14.44l-.69-.15c-.76,1.44-1.56,2.85-2.26,4.32q-7.07,14.94-14.1,29.89a17.3,17.3,0,0,1-.93,1.82,4.4,4.4,0,0,1-5.45,2.13,4.06,4.06,0,0,1-2.86-4.62c.65-5,1.44-10,2.25-15.47l-1.59,2.18c-2.8,3.84-5.56,7.73-8.45,11.51a12.09,12.09,0,0,1-3,2.69c-4,2.55-8.17.63-8.59-4.09-.3-3.37-.06-6.79-.06-10.87-.82,1.08-1.26,1.7-1.74,2.3-3.64,4.55-7.26,9.11-10.93,13.63a25,25,0,0,1-2.25,2.24c-2.21,2.15-4.76,3.32-7.82,2.11-3.24-1.29-4.47-4.17-4.45-7.29.07-7.94.37-15.88.75-23.81.22-4.45.78-8.88,1.21-13.56-5,.33-9.25-1.71-13.06-5.49-1.07,4.5-2,8.71-3.07,12.87-2.55,9.56-5.32,19.06-10.48,27.61a44.88,44.88,0,0,1-5.4,7c-4.55,5-10.48,6.11-16.82,5.15-3.64-.56-6.19-3.19-8.11-6.15a40.11,40.11,0,0,1-6.4-18,110.26,110.26,0,0,1-.47-13.11A19.4,19.4,0,0,1-895.5-245c3.83-10.47,9.77-19.53,19.13-25.81,7.38-5,15.48-5.36,24-2.26,4.59-24.37,4.37-49.41,8.08-74.11-4.92,2.51-9.64,5.2-14.6,7.38-5.44,2.38-11.11,4.26-16.64,6.43a4.17,4.17,0,0,0-1.83,1.52c-.85,1.25-2.78,1.6-4.69.55-1.32-.73-2.29-2-1.28-3.33a12.35,12.35,0,0,1,4-3.51c8.16-4.26,16.44-8.3,24.62-12.53,3.88-2,7.69-4.21,11.42-6.51a7.29,7.29,0,0,0,2.66-3.08,21.51,21.51,0,0,1,6.5-8.85,12.16,12.16,0,0,1,8.51-2.48c3.94.3,6,3.59,4.12,7.06a21.74,21.74,0,0,1-4.79,5.65c-2.39,2.06-5.2,3.65-7.69,5.61a4.92,4.92,0,0,0-1.88,2.79q-1.56,13.86-2.82,27.73c-1.39,15.28-2.65,30.58-4,45.86-.35,3.9-1,7.78-1.5,11.67-.06.5-.22,1.23,0,1.49,2.43,2.43,4.85,4.89,7.46,7.13a2.37,2.37,0,0,0,3.59-.68,21,21,0,0,0,2.56-4.69c2.21-6.24,4.22-12.55,6.39-18.81.6-1.74,2.07-2.95,3.84-2.43,1.25.36,2.32,1.65,3.21,2.74.35.42.11,1.45-.08,2.15-1.74,6.47-4,12.84-5.2,19.4-1.47,7.7-2.27,15.54-3.05,23.34-.71,7.07-1,14.18-1.49,21.27Zm-62.77-17.15a30.34,30.34,0,0,0,4.66,17.65c1,1.57,2.81,3.32,4.49,3.62a8.59,8.59,0,0,0,9.12-3.72,61.1,61.1,0,0,0,4.79-7.92c5.68-12.18,9-25.09,11.48-38.22.85-4.47-1.34-7.12-5.92-7.2-5.68-.1-10.75,1.41-14.8,5.6a52.22,52.22,0,0,0-3.86,4.16C-884.89-249.76-889.56-241.92-889.11-231.12Z" transform="translate(896.87 371.6)"/></svg>